# xmcd CD database file
#
# Track frame offsets:
#	150
#	27468
#	40817
#	60739
#	75165
#	96740
#	122475
#	155533
#	183922
#	209533
#
# Disc length: 3138 seconds
#
# Revision: 0
# Processed by: cddbd v1.4PL0 Copyright (c) Steve Scherf et al.
# Submitted via: CDex 1.50Beta7
#
DISCID=810c400a
DTITLE=Seven Ages - otherland
DYEAR=2001
DGENRE=New Age
TTITLE0=rishi valley
TTITLE1=invocation part 1
TTITLE2=sié
TTITLE3=invocation part 2
TTITLE4=apricots
TTITLE5=in the crowd
TTITLE6=across the land
TTITLE7=broken glass
TTITLE8=mag mell
TTITLE9=nothing but a feeling
EXTD=YEAR: 2001
EXTT0=
EXTT1=
EXTT2=
EXTT3=
EXTT4=
EXTT5=
EXTT6=
EXTT7=
EXTT8=
EXTT9=
PLAYORDER=
